<?xml version="1.0" encoding="UTF-8" standalone="no"?>
<!DOCTYPE svg PUBLIC "-//W3C//DTD SVG 1.1//EN"
 "http://www.w3.org/Graphics/SVG/1.1/DTD/svg11.dtd">
<!-- Generated by graphviz version 5.0.0 (20220707.1540)
 -->
<!-- Title: UmlClassDiagram Pages: 1 -->
<svg width="2953pt" height="1207pt"
 viewBox="0.00 0.00 2953.41 1207.20" xmlns="http://www.w3.org/2000/svg" xmlns:xlink="http://www.w3.org/1999/xlink">
<g id="graph0" class="graph" transform="scale(1 1) rotate(0) translate(4 1203.2)">
<title>UmlClassDiagram</title>
<polygon fill="white" stroke="transparent" points="-4,4 -4,-1203.2 2949.41,-1203.2 2949.41,4 -4,4"/>
<!-- 1 -->
<g id="node1" class="node">
<title>1</title>
<polygon fill="#f2f2f2" stroke="black" points="397.98,-71.7 397.98,-171.7 543.43,-171.7 543.43,-71.7 397.98,-71.7"/>
<text text-anchor="middle" x="470.7" y="-155.1" font-family="Times,serif" font-size="14.00">&lt;&lt;Enum&gt;&gt;</text>
<text text-anchor="middle" x="470.7" y="-138.3" font-family="Times,serif" font-size="14.00">OrderType</text>
<text text-anchor="middle" x="470.7" y="-121.5" font-family="Times,serif" font-size="14.00">contracts/Exchange.sol</text>
<polyline fill="none" stroke="black" points="397.98,-113.3 543.43,-113.3 "/>
<text text-anchor="start" x="405.98" y="-96.7" font-family="Times,serif" font-size="14.00">LIMITSELL: 0</text>
<text text-anchor="start" x="405.98" y="-79.9" font-family="Times,serif" font-size="14.00">LIMITBUY: 1</text>
</g>
<!-- 0 -->
<g id="node4" class="node">
<title>0</title>
<polygon fill="#f2f2f2" stroke="black" points="0,-279.9 0,-555.9 941.41,-555.9 941.41,-279.9 0,-279.9"/>
<text text-anchor="middle" x="470.7" y="-539.3" font-family="Times,serif" font-size="14.00">Exchange</text>
<text text-anchor="middle" x="470.7" y="-522.5" font-family="Times,serif" font-size="14.00">contracts/Exchange.sol</text>
<polyline fill="none" stroke="black" points="0,-514.3 941.41,-514.3 "/>
<text text-anchor="start" x="8" y="-497.7" font-family="Times,serif" font-size="14.00">Public:</text>
<text text-anchor="start" x="8" y="-480.9" font-family="Times,serif" font-size="14.00"> &#160;&#160;placedOrders: mapping(bytes32=&gt;Order)</text>
<text text-anchor="start" x="8" y="-464.1" font-family="Times,serif" font-size="14.00"> &#160;&#160;pairs: mapping(bytes32=&gt;Pair)</text>
<text text-anchor="start" x="8" y="-447.3" font-family="Times,serif" font-size="14.00"> &#160;&#160;system: System</text>
<polyline fill="none" stroke="black" points="0,-439.1 941.41,-439.1 "/>
<text text-anchor="start" x="8" y="-422.5" font-family="Times,serif" font-size="14.00">External:</text>
<text text-anchor="start" x="8" y="-405.7" font-family="Times,serif" font-size="14.00"> &#160;&#160;&#160;createPair(token0: address, token1: address, exchangeRateDecimals: uint256, minToken0Order: uint256, minToken1Order: uint256)</text>
<text text-anchor="start" x="8" y="-388.9" font-family="Times,serif" font-size="14.00"> &#160;&#160;&#160;createLimitOrder(token0: address, token1: address, amount: uint256, orderType: uint256, exchangeRate: uint256)</text>
<text text-anchor="start" x="8" y="-372.1" font-family="Times,serif" font-size="14.00"> &#160;&#160;&#160;updateLimitOrder(orderId: bytes32, amount: uint256)</text>
<text text-anchor="start" x="8" y="-355.3" font-family="Times,serif" font-size="14.00"> &#160;&#160;&#160;executeLimitOrder(orderId: bytes32, fillAmount: uint256)</text>
<text text-anchor="start" x="8" y="-338.5" font-family="Times,serif" font-size="14.00">Public:</text>
<text text-anchor="start" x="8" y="-321.7" font-family="Times,serif" font-size="14.00"> &#160;&#160;&#160;&lt;&lt;event&gt;&gt; OrderCreated(orderId: bytes32, maker: address, token0: address, token1: address, amount: uint256, _exchangeRate: uint256, orderType: uint256)</text>
<text text-anchor="start" x="8" y="-304.9" font-family="Times,serif" font-size="14.00"> &#160;&#160;&#160;&lt;&lt;event&gt;&gt; PairCreated(pairId: bytes32, token0: address, token1: address, exchangeRateDecimals: uint256, minToken0Order: uint256, minToken1Order: uint256)</text>
<text text-anchor="start" x="8" y="-288.1" font-family="Times,serif" font-size="14.00"> &#160;&#160;&#160;constructor(_system: address)</text>
</g>
<!-- 1&#45;&gt;0 -->
<g id="edge1" class="edge">
<title>1&#45;&gt;0</title>
<path fill="none" stroke="black" d="M465.51,-171.94C464.49,-198.57 463.98,-233.04 463.95,-267.66"/>
<polygon fill="black" stroke="black" points="463.95,-267.9 467.96,-273.89 463.97,-279.9 459.96,-273.9 463.95,-267.9"/>
</g>
<!-- 2 -->
<g id="node2" class="node">
<title>2</title>
<polygon fill="#f2f2f2" stroke="black" points="207.98,-613.7 207.98,-797.7 353.43,-797.7 353.43,-613.7 207.98,-613.7"/>
<text text-anchor="middle" x="280.7" y="-781.1" font-family="Times,serif" font-size="14.00">&lt;&lt;Struct&gt;&gt;</text>
<text text-anchor="middle" x="280.7" y="-764.3" font-family="Times,serif" font-size="14.00">Order</text>
<text text-anchor="middle" x="280.7" y="-747.5" font-family="Times,serif" font-size="14.00">contracts/Exchange.sol</text>
<polyline fill="none" stroke="black" points="207.98,-739.3 353.43,-739.3 "/>
<text text-anchor="start" x="215.98" y="-722.7" font-family="Times,serif" font-size="14.00">maker: address</text>
<text text-anchor="start" x="215.98" y="-705.9" font-family="Times,serif" font-size="14.00">token0: address</text>
<text text-anchor="start" x="215.98" y="-689.1" font-family="Times,serif" font-size="14.00">token1: address</text>
<text text-anchor="start" x="215.98" y="-672.3" font-family="Times,serif" font-size="14.00">orderType: uint256</text>
<text text-anchor="start" x="215.98" y="-655.5" font-family="Times,serif" font-size="14.00">exchangeRate: uint256</text>
<text text-anchor="start" x="215.98" y="-638.7" font-family="Times,serif" font-size="14.00">amount: uint256</text>
<text text-anchor="start" x="215.98" y="-621.9" font-family="Times,serif" font-size="14.00">fill: uint256</text>
</g>
<!-- 2&#45;&gt;0 -->
<g id="edge2" class="edge">
<title>2&#45;&gt;0</title>
<path fill="none" stroke="black" d="M347.76,-613.37C358.1,-598.2 368.91,-582.13 379.66,-565.99"/>
<polygon fill="black" stroke="black" points="379.7,-565.93 379.69,-558.72 386.34,-555.94 386.36,-563.15 379.7,-565.93"/>
</g>
<!-- 3 -->
<g id="node3" class="node">
<title>3</title>
<polygon fill="#f2f2f2" stroke="black" points="371.93,-630.5 371.93,-780.9 569.48,-780.9 569.48,-630.5 371.93,-630.5"/>
<text text-anchor="middle" x="470.7" y="-764.3" font-family="Times,serif" font-size="14.00">&lt;&lt;Struct&gt;&gt;</text>
<text text-anchor="middle" x="470.7" y="-747.5" font-family="Times,serif" font-size="14.00">Pair</text>
<text text-anchor="middle" x="470.7" y="-730.7" font-family="Times,serif" font-size="14.00">contracts/Exchange.sol</text>
<polyline fill="none" stroke="black" points="371.93,-722.5 569.48,-722.5 "/>
<text text-anchor="start" x="379.93" y="-705.9" font-family="Times,serif" font-size="14.00">token0: address</text>
<text text-anchor="start" x="379.93" y="-689.1" font-family="Times,serif" font-size="14.00">token1: address</text>
<text text-anchor="start" x="379.93" y="-672.3" font-family="Times,serif" font-size="14.00">exchangeRateDecimals: uint256</text>
<text text-anchor="start" x="379.93" y="-655.5" font-family="Times,serif" font-size="14.00">minToken0Order: uint256</text>
<text text-anchor="start" x="379.93" y="-638.7" font-family="Times,serif" font-size="14.00">minToken1Order: uint256</text>
</g>
<!-- 3&#45;&gt;0 -->
<g id="edge3" class="edge">
<title>3&#45;&gt;0</title>
<path fill="none" stroke="black" d="M476.71,-630.32C477.16,-611.05 477.41,-589.6 477.45,-567.97"/>
<polygon fill="black" stroke="black" points="477.45,-567.94 473.45,-561.94 477.45,-555.94 481.45,-561.94 477.45,-567.94"/>
</g>
<!-- 0&#45;&gt;1 -->
<g id="edge7" class="edge">
<title>0&#45;&gt;1</title>
<path fill="none" stroke="black" stroke-dasharray="5,2" d="M477.44,-279.9C477.54,-245.5 477.14,-210.36 476.25,-182.05"/>
<polygon fill="black" stroke="black" points="479.74,-181.81 475.9,-171.94 472.75,-182.06 479.74,-181.81"/>
</g>
<!-- 0&#45;&gt;2 -->
<g id="edge4" class="edge">
<title>0&#45;&gt;2</title>
<path fill="none" stroke="black" d="M372.85,-555.94C361.9,-572.38 350.99,-588.92 340.71,-604.7"/>
<polygon fill="black" stroke="black" points="337.59,-603.08 335.07,-613.37 343.46,-606.9 337.59,-603.08"/>
</g>
<!-- 0&#45;&gt;3 -->
<g id="edge5" class="edge">
<title>0&#45;&gt;3</title>
<path fill="none" stroke="black" d="M463.96,-555.94C463.92,-577.88 464.1,-600 464.48,-620.23"/>
<polygon fill="black" stroke="black" points="460.99,-620.39 464.7,-630.32 467.98,-620.24 460.99,-620.39"/>
</g>
<!-- 4 -->
<g id="node5" class="node">
<title>4</title>
<polygon fill="#f2f2f2" stroke="black" points="587.62,-592.9 587.62,-818.5 905.79,-818.5 905.79,-592.9 587.62,-592.9"/>
<text text-anchor="middle" x="746.7" y="-801.9" font-family="Times,serif" font-size="14.00">System</text>
<text text-anchor="middle" x="746.7" y="-785.1" font-family="Times,serif" font-size="14.00">contracts/System.sol</text>
<polyline fill="none" stroke="black" points="587.62,-776.9 905.79,-776.9 "/>
<text text-anchor="start" x="595.62" y="-760.3" font-family="Times,serif" font-size="14.00">Public:</text>
<text text-anchor="start" x="595.62" y="-743.5" font-family="Times,serif" font-size="14.00"> &#160;&#160;admin: address</text>
<text text-anchor="start" x="595.62" y="-726.7" font-family="Times,serif" font-size="14.00"> &#160;&#160;exchange: Exchange</text>
<text text-anchor="start" x="595.62" y="-709.9" font-family="Times,serif" font-size="14.00"> &#160;&#160;vault: Vault</text>
<polyline fill="none" stroke="black" points="587.62,-701.7 905.79,-701.7 "/>
<text text-anchor="start" x="595.62" y="-685.1" font-family="Times,serif" font-size="14.00">External:</text>
<text text-anchor="start" x="595.62" y="-668.3" font-family="Times,serif" font-size="14.00"> &#160;&#160;&#160;setExchange(_exchange: address) &lt;&lt;onlyAdmin&gt;&gt;</text>
<text text-anchor="start" x="595.62" y="-651.5" font-family="Times,serif" font-size="14.00"> &#160;&#160;&#160;setVault(_vault: address) &lt;&lt;onlyAdmin&gt;&gt;</text>
<text text-anchor="start" x="595.62" y="-634.7" font-family="Times,serif" font-size="14.00">Public:</text>
<text text-anchor="start" x="595.62" y="-617.9" font-family="Times,serif" font-size="14.00"> &#160;&#160;&#160;&lt;&lt;modifier&gt;&gt; onlyAdmin()</text>
<text text-anchor="start" x="595.62" y="-601.1" font-family="Times,serif" font-size="14.00"> &#160;&#160;&#160;constructor()</text>
</g>
<!-- 0&#45;&gt;4 -->
<g id="edge6" class="edge">
<title>0&#45;&gt;4</title>
<path fill="none" stroke="black" d="M596.3,-555.94C605.76,-565.76 615.31,-575.61 624.75,-585.32"/>
<polygon fill="black" stroke="black" points="622.46,-587.99 631.95,-592.71 627.48,-583.1 622.46,-587.99"/>
</g>
<!-- 4&#45;&gt;0 -->
<g id="edge8" class="edge">
<title>4&#45;&gt;0</title>
<path fill="none" stroke="black" d="M645.16,-592.71C635.87,-583 626.35,-573.08 616.77,-563.16"/>
<polygon fill="black" stroke="black" points="619.26,-560.7 609.79,-555.94 614.22,-565.56 619.26,-560.7"/>
</g>
<!-- 5 -->
<g id="node6" class="node">
<title>5</title>
<polygon fill="#f2f2f2" stroke="black" points="480.72,-855.5 480.72,-1198.7 1012.69,-1198.7 1012.69,-855.5 480.72,-855.5"/>
<text text-anchor="middle" x="746.7" y="-1182.1" font-family="Times,serif" font-size="14.00">Vault</text>
<text text-anchor="middle" x="746.7" y="-1165.3" font-family="Times,serif" font-size="14.00">contracts/Vault.sol</text>
<polyline fill="none" stroke="black" points="480.72,-1157.1 1012.69,-1157.1 "/>
<text text-anchor="start" x="488.72" y="-1140.5" font-family="Times,serif" font-size="14.00">Public:</text>
<text text-anchor="start" x="488.72" y="-1123.7" font-family="Times,serif" font-size="14.00"> &#160;&#160;system: System</text>
<text text-anchor="start" x="488.72" y="-1106.9" font-family="Times,serif" font-size="14.00"> &#160;&#160;userTokenBalance: mapping(address=&gt;mapping(address=&gt;uint256))</text>
<text text-anchor="start" x="488.72" y="-1090.1" font-family="Times,serif" font-size="14.00"> &#160;&#160;userTokenBalanceInOrder: mapping(address=&gt;mapping(address=&gt;uint256))</text>
<polyline fill="none" stroke="black" points="480.72,-1081.9 1012.69,-1081.9 "/>
<text text-anchor="start" x="488.72" y="-1065.3" font-family="Times,serif" font-size="14.00">External:</text>
<text text-anchor="start" x="488.72" y="-1048.5" font-family="Times,serif" font-size="14.00"> &#160;&#160;&#160;deposit(token: address, amount: uint256)</text>
<text text-anchor="start" x="488.72" y="-1031.7" font-family="Times,serif" font-size="14.00"> &#160;&#160;&#160;withdraw(token: address, amount: uint256)</text>
<text text-anchor="start" x="488.72" y="-1014.9" font-family="Times,serif" font-size="14.00"> &#160;&#160;&#160;lockToken(token: address, amount: uint256, account: address) &lt;&lt;onlyExchanger&gt;&gt;</text>
<text text-anchor="start" x="488.72" y="-998.1" font-family="Times,serif" font-size="14.00"> &#160;&#160;&#160;increaseBalance(token: address, amount: uint256, account: address) &lt;&lt;onlyExchanger&gt;&gt;</text>
<text text-anchor="start" x="488.72" y="-981.3" font-family="Times,serif" font-size="14.00"> &#160;&#160;&#160;decreaseBalance(token: address, amount: uint256, account: address) &lt;&lt;onlyExchanger&gt;&gt;</text>
<text text-anchor="start" x="488.72" y="-964.5" font-family="Times,serif" font-size="14.00"> &#160;&#160;&#160;unlockToken(token: address, amount: uint256, account: address) &lt;&lt;onlyExchanger&gt;&gt;</text>
<text text-anchor="start" x="488.72" y="-947.7" font-family="Times,serif" font-size="14.00">Public:</text>
<text text-anchor="start" x="488.72" y="-930.9" font-family="Times,serif" font-size="14.00"> &#160;&#160;&#160;&lt;&lt;event&gt;&gt; TokensDeposited(account: address, token: address, amount: uint256)</text>
<text text-anchor="start" x="488.72" y="-914.1" font-family="Times,serif" font-size="14.00"> &#160;&#160;&#160;&lt;&lt;event&gt;&gt; TokenWithdrawn(account: address, token: address, amount: uint256)</text>
<text text-anchor="start" x="488.72" y="-897.3" font-family="Times,serif" font-size="14.00"> &#160;&#160;&#160;&lt;&lt;modifier&gt;&gt; onlyExchanger()</text>
<text text-anchor="start" x="488.72" y="-880.5" font-family="Times,serif" font-size="14.00"> &#160;&#160;&#160;constructor(_system: address)</text>
<text text-anchor="start" x="488.72" y="-863.7" font-family="Times,serif" font-size="14.00"> &#160;&#160;&#160;getBalance(token: address): uint256</text>
</g>
<!-- 4&#45;&gt;5 -->
<g id="edge9" class="edge">
<title>4&#45;&gt;5</title>
<path fill="none" stroke="black" d="M740.23,-818.86C740.13,-827.48 740.05,-836.3 740.01,-845.21"/>
<polygon fill="black" stroke="black" points="736.51,-845.3 739.97,-855.31 743.51,-845.32 736.51,-845.3"/>
</g>
<!-- 5&#45;&gt;4 -->
<g id="edge10" class="edge">
<title>5&#45;&gt;4</title>
<path fill="none" stroke="black" d="M753.44,-855.31C753.42,-846.44 753.37,-837.62 753.29,-828.95"/>
<polygon fill="black" stroke="black" points="756.79,-828.82 753.18,-818.86 749.79,-828.9 756.79,-828.82"/>
</g>
<!-- 7 -->
<g id="node7" class="node">
<title>7</title>
<polygon fill="#f2f2f2" stroke="black" points="1349.76,-71.7 1349.76,-171.7 1521.65,-171.7 1521.65,-71.7 1349.76,-71.7"/>
<text text-anchor="middle" x="1435.7" y="-155.1" font-family="Times,serif" font-size="14.00">&lt;&lt;Enum&gt;&gt;</text>
<text text-anchor="middle" x="1435.7" y="-138.3" font-family="Times,serif" font-size="14.00">OrderType</text>
<text text-anchor="middle" x="1435.7" y="-121.5" font-family="Times,serif" font-size="14.00">contracts/archieve/Limo.sol</text>
<polyline fill="none" stroke="black" points="1349.76,-113.3 1521.65,-113.3 "/>
<text text-anchor="start" x="1357.76" y="-96.7" font-family="Times,serif" font-size="14.00">LIMITSELL: 0</text>
<text text-anchor="start" x="1357.76" y="-79.9" font-family="Times,serif" font-size="14.00">LIMITBUY: 1</text>
</g>
<!-- 6 -->
<g id="node9" class="node">
<title>6</title>
<polygon fill="#f2f2f2" stroke="black" points="959.6,-321.9 959.6,-513.9 1911.81,-513.9 1911.81,-321.9 959.6,-321.9"/>
<text text-anchor="middle" x="1435.7" y="-497.3" font-family="Times,serif" font-size="14.00">Limo</text>
<text text-anchor="middle" x="1435.7" y="-480.5" font-family="Times,serif" font-size="14.00">contracts/archieve/Limo.sol</text>
<polyline fill="none" stroke="black" points="959.6,-472.3 1911.81,-472.3 "/>
<text text-anchor="start" x="967.6" y="-455.7" font-family="Times,serif" font-size="14.00">Public:</text>
<text text-anchor="start" x="967.6" y="-438.9" font-family="Times,serif" font-size="14.00"> &#160;&#160;pairs: mapping(bytes32=&gt;address)</text>
<text text-anchor="start" x="967.6" y="-422.1" font-family="Times,serif" font-size="14.00"> &#160;&#160;orderFills: mapping(bytes32=&gt;uint)</text>
<polyline fill="none" stroke="black" points="959.6,-413.9 1911.81,-413.9 "/>
<text text-anchor="start" x="967.6" y="-397.3" font-family="Times,serif" font-size="14.00">External:</text>
<text text-anchor="start" x="967.6" y="-380.5" font-family="Times,serif" font-size="14.00"> &#160;&#160;&#160;executeOrder(maker: address, token0: address, token1: address, orderType: uint, exchangeRate: uint256, srcAmount: uint256, fillAmount: uint256, signature: bytes)</text>
<text text-anchor="start" x="967.6" y="-363.7" font-family="Times,serif" font-size="14.00">Public:</text>
<text text-anchor="start" x="967.6" y="-346.9" font-family="Times,serif" font-size="14.00"> &#160;&#160;&#160;&lt;&lt;event&gt;&gt; NewPair(token0: address, token1: address, pair: address)</text>
<text text-anchor="start" x="967.6" y="-330.1" font-family="Times,serif" font-size="14.00"> &#160;&#160;&#160;constructor()</text>
</g>
<!-- 7&#45;&gt;6 -->
<g id="edge11" class="edge">
<title>7&#45;&gt;6</title>
<path fill="none" stroke="black" d="M1430.51,-171.94C1429.08,-209.41 1428.64,-262.38 1429.18,-309.49"/>
<polygon fill="black" stroke="black" points="1429.18,-309.64 1433.26,-315.59 1429.34,-321.64 1425.26,-315.69 1429.18,-309.64"/>
</g>
<!-- 8 -->
<g id="node8" class="node">
<title>8</title>
<polygon fill="#f2f2f2" stroke="black" points="1539.76,-38.1 1539.76,-205.3 1711.65,-205.3 1711.65,-38.1 1539.76,-38.1"/>
<text text-anchor="middle" x="1625.7" y="-188.7" font-family="Times,serif" font-size="14.00">&lt;&lt;Struct&gt;&gt;</text>
<text text-anchor="middle" x="1625.7" y="-171.9" font-family="Times,serif" font-size="14.00">Order</text>
<text text-anchor="middle" x="1625.7" y="-155.1" font-family="Times,serif" font-size="14.00">contracts/archieve/Limo.sol</text>
<polyline fill="none" stroke="black" points="1539.76,-146.9 1711.65,-146.9 "/>
<text text-anchor="start" x="1547.76" y="-130.3" font-family="Times,serif" font-size="14.00">maker: address</text>
<text text-anchor="start" x="1547.76" y="-113.5" font-family="Times,serif" font-size="14.00">token0: address</text>
<text text-anchor="start" x="1547.76" y="-96.7" font-family="Times,serif" font-size="14.00">token1: address</text>
<text text-anchor="start" x="1547.76" y="-79.9" font-family="Times,serif" font-size="14.00">orderType: uint256</text>
<text text-anchor="start" x="1547.76" y="-63.1" font-family="Times,serif" font-size="14.00">exchangeRate: uint256</text>
<text text-anchor="start" x="1547.76" y="-46.3" font-family="Times,serif" font-size="14.00">srcAmount: uint256</text>
</g>
<!-- 8&#45;&gt;6 -->
<g id="edge12" class="edge">
<title>8&#45;&gt;6</title>
<path fill="none" stroke="black" d="M1572.27,-205.43C1550.99,-238.38 1526.25,-276.7 1503.72,-311.59"/>
<polygon fill="black" stroke="black" points="1503.62,-311.73 1503.73,-318.94 1497.11,-321.81 1497.01,-314.6 1503.62,-311.73"/>
</g>
<!-- 6&#45;&gt;7 -->
<g id="edge13" class="edge">
<title>6&#45;&gt;7</title>
<path fill="none" stroke="black" stroke-dasharray="5,2" d="M1442.07,-321.64C1442.78,-275.72 1442.51,-222.07 1441.25,-182.07"/>
<polygon fill="black" stroke="black" points="1444.74,-181.81 1440.9,-171.94 1437.75,-182.06 1444.74,-181.81"/>
</g>
<!-- 9 -->
<g id="node10" class="node">
<title>9</title>
<polygon fill="#f2f2f2" stroke="black" points="1730.01,-0.5 1730.01,-242.9 2475.39,-242.9 2475.39,-0.5 1730.01,-0.5"/>
<text text-anchor="middle" x="2102.7" y="-226.3" font-family="Times,serif" font-size="14.00">LimoPair</text>
<text text-anchor="middle" x="2102.7" y="-209.5" font-family="Times,serif" font-size="14.00">contracts/archieve/LimoPair.sol</text>
<polyline fill="none" stroke="black" points="1730.01,-201.3 2475.39,-201.3 "/>
<text text-anchor="start" x="1738.01" y="-184.7" font-family="Times,serif" font-size="14.00">Public:</text>
<text text-anchor="start" x="1738.01" y="-167.9" font-family="Times,serif" font-size="14.00"> &#160;&#160;token0: address</text>
<text text-anchor="start" x="1738.01" y="-151.1" font-family="Times,serif" font-size="14.00"> &#160;&#160;token1: address</text>
<text text-anchor="start" x="1738.01" y="-134.3" font-family="Times,serif" font-size="14.00"> &#160;&#160;minToken0Order: uint256</text>
<text text-anchor="start" x="1738.01" y="-117.5" font-family="Times,serif" font-size="14.00"> &#160;&#160;minToken1Order: uint256</text>
<text text-anchor="start" x="1738.01" y="-100.7" font-family="Times,serif" font-size="14.00"> &#160;&#160;exchangeRateDecimals: uint256</text>
<text text-anchor="start" x="1738.01" y="-83.9" font-family="Times,serif" font-size="14.00"> &#160;&#160;limo: address</text>
<text text-anchor="start" x="1738.01" y="-67.1" font-family="Times,serif" font-size="14.00"> &#160;&#160;orderFills: mapping(bytes32=&gt;uint)</text>
<polyline fill="none" stroke="black" points="1730.01,-58.9 2475.39,-58.9 "/>
<text text-anchor="start" x="1738.01" y="-42.3" font-family="Times,serif" font-size="14.00">Public:</text>
<text text-anchor="start" x="1738.01" y="-25.5" font-family="Times,serif" font-size="14.00"> &#160;&#160;&#160;constructor(_token0: address, _token1: address)</text>
<text text-anchor="start" x="1738.01" y="-8.7" font-family="Times,serif" font-size="14.00"> &#160;&#160;&#160;exchange(maker: address, taker: address, digest: bytes32, exchangeRate: uint256, makerAmount: uint256, fillAmount: uint256)</text>
</g>
<!-- 10 -->
<g id="node11" class="node">
<title>10</title>
<polygon fill="#f2f2f2" stroke="black" points="2493.2,-92.5 2493.2,-150.9 2668.21,-150.9 2668.21,-92.5 2493.2,-92.5"/>
<text text-anchor="middle" x="2580.7" y="-134.3" font-family="Times,serif" font-size="14.00">&lt;&lt;Library&gt;&gt;</text>
<text text-anchor="middle" x="2580.7" y="-117.5" font-family="Times,serif" font-size="14.00">errors</text>
<text text-anchor="middle" x="2580.7" y="-100.7" font-family="Times,serif" font-size="14.00">contracts/libraries/Errors.sol</text>
</g>
<!-- 11 -->
<g id="node12" class="node">
<title>11</title>
<polygon fill="#f2f2f2" stroke="black" points="2686,-71.7 2686,-171.7 2945.41,-171.7 2945.41,-71.7 2686,-71.7"/>
<text text-anchor="middle" x="2815.7" y="-155.1" font-family="Times,serif" font-size="14.00">TestERC20</text>
<text text-anchor="middle" x="2815.7" y="-138.3" font-family="Times,serif" font-size="14.00">contracts/test/ERC20.sol</text>
<polyline fill="none" stroke="black" points="2686,-130.1 2945.41,-130.1 "/>
<text text-anchor="start" x="2694" y="-113.5" font-family="Times,serif" font-size="14.00">Public:</text>
<text text-anchor="start" x="2694" y="-96.7" font-family="Times,serif" font-size="14.00"> &#160;&#160;&#160;constructor(name: string, symbol: string)</text>
<text text-anchor="start" x="2694" y="-79.9" font-family="Times,serif" font-size="14.00"> &#160;&#160;&#160;mint(to: address, amount: uint256)</text>
</g>
</g>
</svg>
